<svg width="27" height="27" viewBox="0 0 27 27" fill="none" xmlns="http://www.w3.org/2000/svg">
<g clip-path="url(#clip0_87_84)">
<path d="M13.5 0C10.83 0 8.21987 0.791761 5.99981 2.27516C3.77974 3.75856 2.04941 5.86697 1.02763 8.33377C0.00584932 10.8006 -0.261496 13.515 0.259405 16.1337C0.780305 18.7525 2.06605 21.1579 3.95406 23.0459C5.84207 24.9339 8.24754 26.2197 10.8663 26.7406C13.485 27.2615 16.1994 26.9942 18.6662 25.9724C21.133 24.9506 23.2414 23.2203 24.7248 21.0002C26.2082 18.7801 27 16.17 27 13.5C27 9.91957 25.5777 6.4858 23.0459 3.95406C20.5142 1.42232 17.0804 0 13.5 0ZM11.5714 18.8904L6.75 14.0689L8.28322 12.5357L11.5714 15.8239L18.7168 8.67857L20.2558 10.2079L11.5714 18.8904Z" fill="#383838"/>
</g>
<defs>
<clipPath id="clip0_87_84">
<rect width="27" height="27" fill="white"/>
</clipPath>
</defs>
</svg>
