<svg width="26" height="25" viewBox="0 0 26 25" fill="none" xmlns="http://www.w3.org/2000/svg">
<g clip-path="url(#clip0_24_58)">
<path d="M25.248 12.5C25.248 5.59648 19.6516 0 12.748 0C5.84453 0 0.248047 5.59648 0.248047 12.5C0.248047 18.7391 4.81914 23.9104 10.7949 24.8481V16.1133H7.62109V12.5H10.7949V9.74609C10.7949 6.61328 12.6611 4.88281 15.5164 4.88281C16.884 4.88281 18.3145 5.12695 18.3145 5.12695V8.20312H16.7383C15.1854 8.20312 14.7012 9.16669 14.7012 10.1553V12.5H18.168L17.6138 16.1133H14.7012V24.8481C20.677 23.9104 25.248 18.7391 25.248 12.5Z" fill="#1877F2"/>
<path d="M17.6138 16.1133L18.168 12.5H14.7012V10.1553C14.7012 9.1666 15.1854 8.20312 16.7383 8.20312H18.3145V5.12695C18.3145 5.12695 16.884 4.88281 15.5163 4.88281C12.6611 4.88281 10.7949 6.61328 10.7949 9.74609V12.5H7.62109V16.1133H10.7949V24.8481C11.441 24.9494 12.094 25.0002 12.748 25C13.402 25.0002 14.0551 24.9494 14.7012 24.8481V16.1133H17.6138Z" fill="#E6E6E6"/>
</g>
<defs>
<clipPath id="clip0_24_58">
<rect width="25" height="25" fill="white" transform="translate(0.248047)"/>
</clipPath>
</defs>
</svg>
