<svg width="26" height="25" viewBox="0 0 26 25" fill="none" xmlns="http://www.w3.org/2000/svg">
<g clip-path="url(#clip0_24_61)">
<path d="M19.2157 0H5.88236C2.63362 0 0 2.62333 0 5.85938V19.1406C0 22.3767 2.63362 25 5.88236 25H19.2157C22.4644 25 25.0981 22.3767 25.0981 19.1406V5.85938C25.0981 2.62333 22.4644 0 19.2157 0Z" fill="url(#paint0_radial_24_61)"/>
<path d="M19.2157 0H5.88236C2.63362 0 0 2.62333 0 5.85938V19.1406C0 22.3767 2.63362 25 5.88236 25H19.2157C22.4644 25 25.0981 22.3767 25.0981 19.1406V5.85938C25.0981 2.62333 22.4644 0 19.2157 0Z" fill="url(#paint1_radial_24_61)"/>
<path d="M12.5499 2.73438C9.88736 2.73438 9.55314 2.746 8.50745 2.79336C7.46373 2.84102 6.75128 3.00557 6.12795 3.24707C5.48304 3.49648 4.93608 3.83018 4.39118 4.37314C3.84579 4.91602 3.51079 5.46084 3.25961 6.10293C3.01647 6.72402 2.85108 7.43398 2.80412 8.47315C2.75736 9.51484 2.7451 9.84785 2.7451 12.5001C2.7451 15.1523 2.75687 15.4842 2.80432 16.5258C2.85236 17.5654 3.01755 18.2751 3.25981 18.896C3.5104 19.5384 3.8454 20.0832 4.39049 20.626C4.9353 21.1692 5.48226 21.5037 6.12667 21.7531C6.75049 21.9946 7.46304 22.1592 8.50657 22.2068C9.55236 22.2542 9.88628 22.2658 12.5487 22.2658C15.2116 22.2658 15.5447 22.2542 16.5904 22.2068C17.6341 22.1592 18.3474 21.9946 18.9712 21.7531C19.6158 21.5037 20.162 21.1692 20.7067 20.626C21.2521 20.0832 21.587 19.5384 21.8382 18.8963C22.0792 18.2751 22.2447 17.5652 22.2937 16.526C22.3407 15.4844 22.3529 15.1523 22.3529 12.5001C22.3529 9.84785 22.3407 9.51504 22.2937 8.47334C22.2447 7.43369 22.0792 6.72412 21.8382 6.10322C21.587 5.46084 21.2521 4.91602 20.7067 4.37314C20.1614 3.82998 19.616 3.49629 18.9706 3.24717C18.3456 3.00557 17.6327 2.84092 16.589 2.79336C15.5432 2.746 15.2103 2.73438 12.5469 2.73438H12.5499ZM11.6704 4.49424C11.9315 4.49385 12.2227 4.49424 12.5499 4.49424C15.1677 4.49424 15.4778 4.50361 16.5116 4.55039C17.4675 4.59395 17.9863 4.75303 18.3319 4.88672C18.7894 5.06367 19.1156 5.27529 19.4585 5.61719C19.8017 5.95898 20.014 6.28447 20.1922 6.74023C20.3264 7.08398 20.4863 7.60078 20.5298 8.55293C20.5768 9.58242 20.587 9.8916 20.587 12.4979C20.587 15.1041 20.5768 15.4134 20.5298 16.4428C20.4861 17.3949 20.3264 17.9117 20.1922 18.2556C20.0145 18.7113 19.8017 19.0358 19.4585 19.3774C19.1154 19.7192 18.7896 19.9308 18.3319 20.1078C17.9867 20.2421 17.4675 20.4008 16.5116 20.4443C15.478 20.4911 15.1677 20.5013 12.5499 20.5013C9.93206 20.5013 9.62177 20.4911 8.58834 20.4443C7.63245 20.4004 7.11363 20.2413 6.76775 20.1076C6.3103 19.9306 5.98344 19.719 5.6403 19.3772C5.29716 19.0354 5.08481 18.7107 4.90667 18.2548C4.77245 17.9109 4.61255 17.3941 4.56902 16.442C4.52206 15.4125 4.51265 15.1033 4.51265 12.4954C4.51265 9.8876 4.52206 9.57998 4.56902 8.55049C4.61275 7.59834 4.77245 7.08154 4.90667 6.7373C5.08442 6.28154 5.29716 5.95606 5.6404 5.61426C5.98353 5.27246 6.3103 5.06084 6.76785 4.8835C7.11344 4.74922 7.63245 4.59053 8.58834 4.54678C9.49275 4.50605 9.84324 4.49385 11.6704 4.4918V4.49424ZM17.7832 6.11572C17.1337 6.11572 16.6068 6.64014 16.6068 7.28721C16.6068 7.93418 17.1337 8.45908 17.7832 8.45908C18.4327 8.45908 18.9597 7.93418 18.9597 7.28721C18.9597 6.64023 18.4327 6.11533 17.7832 6.11533V6.11572ZM12.5499 7.48496C9.76951 7.48496 7.5152 9.73047 7.5152 12.5001C7.5152 15.2697 9.76951 17.5142 12.5499 17.5142C15.3304 17.5142 17.5839 15.2697 17.5839 12.5001C17.5839 9.73057 15.3302 7.48496 12.5497 7.48496H12.5499ZM12.5499 9.24482C14.3547 9.24482 15.8179 10.7021 15.8179 12.5001C15.8179 14.2979 14.3547 15.7554 12.5499 15.7554C10.745 15.7554 9.28197 14.2979 9.28197 12.5001C9.28197 10.7021 10.745 9.24482 12.5499 9.24482Z" fill="#E6E6E6"/>
</g>
<defs>
<radialGradient id="paint0_radial_24_61" cx="0" cy="0" r="1" gradientUnits="userSpaceOnUse" gradientTransform="translate(6.66667 26.9255) rotate(-90) scale(24.7769 23.1348)">
<stop stop-color="#FFDD55"/>
<stop offset="0.1" stop-color="#FFDD55"/>
<stop offset="0.5" stop-color="#FF543E"/>
<stop offset="1" stop-color="#C837AB"/>
</radialGradient>
<radialGradient id="paint1_radial_24_61" cx="0" cy="0" r="1" gradientUnits="userSpaceOnUse" gradientTransform="translate(-4.20402 1.80088) rotate(78.6378) scale(11.0771 45.8252)">
<stop stop-color="#3771C8"/>
<stop offset="0.128" stop-color="#3771C8"/>
<stop offset="1" stop-color="#6600FF" stop-opacity="0"/>
</radialGradient>
<clipPath id="clip0_24_61">
<rect width="25.0981" height="25" fill="white"/>
</clipPath>
</defs>
</svg>
