<svg width="15" height="15" viewBox="0 0 15 15" fill="none" xmlns="http://www.w3.org/2000/svg">
<path d="M14.375 6.25C14.375 5.91848 14.2433 5.60054 14.0089 5.36612C13.7745 5.1317 13.4565 5 13.125 5H9.175L9.775 2.14375C9.7875 2.08125 9.79375 2.0125 9.79375 1.94375C9.79375 1.6875 9.6875 1.45 9.51875 1.28125L8.85625 0.625L4.74375 4.7375C4.5125 4.96875 4.375 5.28125 4.375 5.625V11.875C4.375 12.2065 4.5067 12.5245 4.74112 12.7589C4.97554 12.9933 5.29348 13.125 5.625 13.125H11.25C11.7688 13.125 12.2125 12.8125 12.4 12.3625L14.2875 7.95625C14.3438 7.8125 14.375 7.6625 14.375 7.5V6.25ZM0.625 13.125H3.125V5.625H0.625V13.125Z" fill="#6D6D6D"/>
</svg>
