<svg width="26" height="26" viewBox="0 0 26 26" fill="none" xmlns="http://www.w3.org/2000/svg">
<circle cx="13" cy="13" r="12.75" fill="white" stroke="white" stroke-width="0.5"/>
<path d="M16.3037 15.0674H15.6526L15.4218 14.8449C15.9369 14.2465 16.3133 13.5416 16.5242 12.7807C16.7351 12.0199 16.7752 11.2218 16.6416 10.4436C16.2543 8.15235 14.3421 6.32263 12.0343 6.0424C11.223 5.93976 10.399 6.02408 9.62522 6.28891C8.85149 6.55374 8.1486 6.99206 7.57033 7.57033C6.99206 8.1486 6.55374 8.85149 6.28891 9.62522C6.02408 10.399 5.93976 11.223 6.0424 12.0343C6.32263 14.3421 8.15235 16.2543 10.4436 16.6416C11.2218 16.7752 12.0199 16.7351 12.7807 16.5242C13.5416 16.3133 14.2465 15.9369 14.8449 15.4218L15.0674 15.6526V16.3037L18.5703 19.8066C18.9082 20.1445 19.4604 20.1445 19.7983 19.8066C20.1362 19.4686 20.1362 18.9164 19.7983 18.5785L16.3037 15.0674ZM11.3585 15.0674C9.30623 15.0674 7.64959 13.4108 7.64959 11.3585C7.64959 9.30623 9.30623 7.64959 11.3585 7.64959C13.4108 7.64959 15.0674 9.30623 15.0674 11.3585C15.0674 13.4108 13.4108 15.0674 11.3585 15.0674Z" fill="#212121"/>
</svg>
