<svg width="112" height="18" viewBox="0 0 112 18" fill="none" xmlns="http://www.w3.org/2000/svg">
<path d="M109.176 7.38966H109.541L109.652 7.04197L110.879 3.20477V13.4964L106.58 16.6797L108.287 11.2924L108.395 10.952L108.108 10.7396L103.584 7.38966H109.176Z" fill="#FFCE31" stroke="#C8652D"/>
<path d="M11.0376 7.04197L11.1488 7.38966H11.5138H17.0897L12.5532 10.7067L12.2623 10.9194L12.372 11.2627L14.1031 16.6754L9.60791 13.3465L9.31035 13.1261L9.01278 13.3465L4.51163 16.6797L6.21804 11.2924L6.32584 10.952L6.03894 10.7396L1.51534 7.38966H7.1069H7.47194L7.58313 7.04197L9.31035 1.64139L11.0376 7.04197Z" fill="#FFCE31" stroke="#C8652D"/>
<path d="M87.5892 7.04197L87.7004 7.38966H88.0654H93.6414L89.1048 10.7067L88.8139 10.9194L88.9237 11.2627L90.6548 16.6754L86.1595 13.3465L85.862 13.1261L85.5644 13.3465L81.0633 16.6797L82.7697 11.2924L82.8775 10.952L82.5906 10.7396L78.067 7.38966H83.6585H84.0236L84.1348 7.04197L85.862 1.64139L87.5892 7.04197Z" fill="#FFCE31" stroke="#C8652D"/>
<path d="M62.072 7.04197L62.1832 7.38966H62.5482H68.1242L63.5876 10.7067L63.2967 10.9194L63.4065 11.2627L65.1376 16.6754L60.6423 13.3465L60.3448 13.1261L60.0472 13.3465L55.5461 16.6797L57.2525 11.2924L57.3603 10.952L57.0734 10.7396L52.5498 7.38966H58.1413H58.5064L58.6176 7.04197L60.3448 1.64139L62.072 7.04197Z" fill="#FFCE31" stroke="#C8652D"/>
<path d="M36.5548 7.04197L36.666 7.38966H37.031H42.607L38.0704 10.7067L37.7795 10.9194L37.8893 11.2627L39.6203 16.6754L35.1251 13.3465L34.8276 13.1261L34.53 13.3465L30.0288 16.6797L31.7353 11.2924L31.8431 10.952L31.5562 10.7396L27.0326 7.38966H32.6241H32.9891L33.1003 7.04197L34.8276 1.64139L36.5548 7.04197Z" fill="#FFCE31" stroke="#C8652D"/>
</svg>
