<svg width="11" height="7" viewBox="0 0 11 7" fill="none" xmlns="http://www.w3.org/2000/svg">
<path d="M0.845647 0.867194C0.797797 0.813095 0.741509 0.770802 0.679998 0.742729C0.618486 0.714656 0.552956 0.701353 0.487147 0.70358C0.421339 0.705808 0.356542 0.723521 0.296455 0.75571C0.236368 0.787898 0.182169 0.833931 0.136952 0.89118C0.0917348 0.948429 0.0563852 1.01577 0.0329213 1.08937C0.00945746 1.16296 -0.00166114 1.24136 0.00020048 1.3201C0.0020621 1.39883 0.0168674 1.47636 0.0437711 1.54825C0.0706748 1.62014 0.10915 1.68498 0.157 1.73908L4.66779 6.83609C4.76084 6.94135 4.88405 7 5.01211 7C5.14017 7 5.26338 6.94135 5.35643 6.83609L9.86772 1.73908C9.91662 1.68534 9.9561 1.62051 9.98388 1.54836C10.0117 1.4762 10.0272 1.39816 10.0295 1.31877C10.0319 1.23938 10.021 1.16022 9.99761 1.08589C9.97418 1.01156 9.93865 0.943543 9.89306 0.885785C9.84747 0.828026 9.79275 0.781681 9.73207 0.74944C9.67138 0.717199 9.60595 0.699706 9.53957 0.697976C9.47318 0.696247 9.40718 0.710315 9.34538 0.739364C9.28358 0.768414 9.22722 0.811865 9.17957 0.867194L5.01211 5.57563L0.845647 0.867194Z" fill="#8A8A8A"/>
</svg>
