<svg width="10" height="7" viewBox="0 0 10 7" fill="none" xmlns="http://www.w3.org/2000/svg">
<path d="M0.819176 0.867194C0.772824 0.813095 0.718298 0.770802 0.658712 0.742729C0.599126 0.714656 0.535647 0.701353 0.471899 0.70358C0.40815 0.705808 0.345381 0.723521 0.287175 0.75571C0.22897 0.787898 0.176467 0.833931 0.132665 0.89118C0.0888633 0.948429 0.0546202 1.01577 0.0318908 1.08937C0.00916142 1.16296 -0.00160915 1.24136 0.000194205 1.3201C0.00199756 1.39883 0.0163394 1.47636 0.042401 1.54825C0.0684625 1.62014 0.105733 1.68498 0.152086 1.73908L4.52167 6.83609C4.61182 6.94135 4.73117 7 4.85522 7C4.97927 7 5.09862 6.94135 5.18877 6.83609L9.55884 1.73908C9.60621 1.68534 9.64446 1.62051 9.67137 1.54836C9.69827 1.4762 9.71331 1.39816 9.71559 1.31877C9.71788 1.23938 9.70736 1.16022 9.68467 1.08589C9.66197 1.01156 9.62755 0.943543 9.58339 0.885785C9.53923 0.828026 9.48622 0.781681 9.42743 0.74944C9.36865 0.717199 9.30526 0.699706 9.24096 0.697976C9.17665 0.696247 9.11271 0.710315 9.05285 0.739364C8.99298 0.768414 8.93839 0.811865 8.89224 0.867194L4.85522 5.57563L0.819176 0.867194Z" fill="#8A8A8A"/>
</svg>
