<svg width="10" height="7" viewBox="0 0 10 7" fill="none" xmlns="http://www.w3.org/2000/svg">
<path d="M0.816782 0.867194C0.770565 0.813095 0.716199 0.770802 0.656787 0.742729C0.597375 0.714656 0.534081 0.701353 0.470519 0.70358C0.406957 0.705808 0.344372 0.723521 0.286336 0.75571C0.2283 0.787898 0.175951 0.833931 0.132277 0.89118C0.0886036 0.948429 0.0544606 1.01577 0.0317976 1.08937C0.00913465 1.16296 -0.00160444 1.24136 0.000193637 1.3201C0.00199172 1.39883 0.0162917 1.47636 0.0422771 1.54825C0.0682624 1.62014 0.105424 1.68498 0.151641 1.73908L4.50846 6.83609C4.59834 6.94135 4.71734 7 4.84103 7C4.96472 7 5.08372 6.94135 5.1736 6.83609L9.5309 1.73908C9.57813 1.68534 9.61627 1.62051 9.6431 1.54836C9.66993 1.4762 9.68492 1.39816 9.6872 1.31877C9.68947 1.23938 9.67899 1.16022 9.65636 1.08589C9.63373 1.01156 9.59941 0.943543 9.55538 0.885785C9.51135 0.828026 9.45849 0.781681 9.39988 0.74944C9.34127 0.717199 9.27807 0.699706 9.21395 0.697976C9.14983 0.696247 9.08608 0.710315 9.02639 0.739364C8.9667 0.768414 8.91226 0.811865 8.86625 0.867194L4.84103 5.57563L0.816782 0.867194Z" fill="#8A8A8A"/>
</svg>
