<svg width="29" height="29" viewBox="0 0 29 29" fill="none" xmlns="http://www.w3.org/2000/svg">
<g clip-path="url(#clip0_10_17)">
<path d="M10.7381 25.7778C11.7391 25.7778 12.5506 24.9663 12.5506 23.9653C12.5506 22.9643 11.7391 22.1528 10.7381 22.1528C9.73704 22.1528 8.92555 22.9643 8.92555 23.9653C8.92555 24.9663 9.73704 25.7778 10.7381 25.7778Z" fill="white"/>
<path d="M21.75 25.7778C22.751 25.7778 23.5625 24.9663 23.5625 23.9653C23.5625 22.9643 22.751 22.1528 21.75 22.1528C20.749 22.1528 19.9375 22.9643 19.9375 23.9653C19.9375 24.9663 20.749 25.7778 21.75 25.7778Z" fill="white"/>
<path d="M26.6478 4.32583C26.5728 4.23343 26.4783 4.15877 26.3711 4.10724C26.2638 4.0557 26.1465 4.02857 26.0275 4.02778H9.25584L9.77945 5.63889H24.9722L22.8214 15.3056H10.7381L7.05667 3.64917C7.01685 3.52548 6.94771 3.41326 6.85513 3.32209C6.76255 3.23091 6.64929 3.16348 6.52501 3.12556L3.22223 2.11056C3.12067 2.07935 3.01397 2.06845 2.9082 2.07848C2.80243 2.08851 2.69968 2.11928 2.6058 2.16902C2.4162 2.26949 2.27428 2.44115 2.21126 2.64625C2.14823 2.85135 2.16926 3.07309 2.26973 3.26268C2.37019 3.45228 2.54185 3.5942 2.74695 3.65722L5.6389 4.54333L9.3364 16.2239L8.01529 17.3033L7.91056 17.4081C7.58378 17.7846 7.39855 18.2634 7.38679 18.7619C7.37503 19.2603 7.53746 19.7473 7.84612 20.1389C8.06568 20.4059 8.34468 20.6178 8.66081 20.7577C8.97693 20.8976 9.32141 20.9615 9.66667 20.9444H23.1114C23.325 20.9444 23.5299 20.8596 23.681 20.7085C23.8321 20.5574 23.917 20.3525 23.917 20.1389C23.917 19.9252 23.8321 19.7203 23.681 19.5693C23.5299 19.4182 23.325 19.3333 23.1114 19.3333H9.53779C9.44502 19.3302 9.35464 19.3031 9.27538 19.2548C9.19612 19.2065 9.13065 19.1386 9.0853 19.0576C9.03995 18.9767 9.01625 18.8853 9.01649 18.7925C9.01673 18.6997 9.0409 18.6085 9.08667 18.5278L11.0281 16.9167H23.4658C23.6521 16.9212 23.8341 16.8611 23.981 16.7465C24.1278 16.632 24.2305 16.4701 24.2714 16.2883L26.825 5.01056C26.8495 4.89046 26.8463 4.76636 26.8156 4.6477C26.7849 4.52905 26.7275 4.41896 26.6478 4.32583Z" fill="white"/>
</g>
<defs>
<clipPath id="clip0_10_17">
<rect width="29" height="29" fill="white"/>
</clipPath>
</defs>
</svg>
