<svg width="15" height="15" viewBox="0 0 15 15" fill="none" xmlns="http://www.w3.org/2000/svg">
<path d="M11.875 9.375H14.375V1.875H11.875M9.375 1.875H3.75C3.23125 1.875 2.7875 2.1875 2.6 2.6375L0.7125 7.04375C0.65625 7.1875 0.625 7.3375 0.625 7.5V8.75C0.625 9.08152 0.756696 9.39946 0.991117 9.63388C1.22554 9.8683 1.54348 10 1.875 10H5.81875L5.225 12.8562C5.2125 12.9187 5.20625 12.9812 5.20625 13.05C5.20625 13.3125 5.3125 13.5438 5.48125 13.7125L6.14375 14.375L10.2563 10.2563C10.4875 10.0312 10.625 9.71875 10.625 9.375V3.125C10.625 2.79348 10.4933 2.47554 10.2589 2.24112C10.0245 2.0067 9.70652 1.875 9.375 1.875Z" fill="#6D6D6D"/>
</svg>
