<svg width="15" height="15" viewBox="0 0 15 15" fill="none" xmlns="http://www.w3.org/2000/svg">
<path fill-rule="evenodd" clip-rule="evenodd" d="M7.623 1C5.86647 1 4.18189 1.69778 2.93983 2.93983C1.69778 4.18189 1 5.86647 1 7.623C1 9.37953 1.69778 11.0641 2.93983 12.3062C4.18189 13.5482 5.86647 14.246 7.623 14.246C9.37953 14.246 11.0641 13.5482 12.3062 12.3062C13.5482 11.0641 14.246 9.37953 14.246 7.623C14.246 5.86647 13.5482 4.18189 12.3062 2.93983C11.0641 1.69778 9.37953 1 7.623 1ZM1.95 7.623C1.95 6.11843 2.54769 4.67548 3.61158 3.61158C4.67548 2.54769 6.11843 1.95 7.623 1.95C9.12757 1.95 10.5705 2.54769 11.6344 3.61158C12.6983 4.67548 13.296 6.11843 13.296 7.623C13.296 9.12757 12.6983 10.5705 11.6344 11.6344C10.5705 12.6983 9.12757 13.296 7.623 13.296C6.11843 13.296 4.67548 12.6983 3.61158 11.6344C2.54769 10.5705 1.95 9.12757 1.95 7.623ZM7.623 9.623C8.15343 9.623 8.66214 9.41229 9.03721 9.03721C9.41229 8.66214 9.623 8.15343 9.623 7.623C9.623 7.09257 9.41229 6.58386 9.03721 6.20879C8.66214 5.83371 8.15343 5.623 7.623 5.623C7.09257 5.623 6.58386 5.83371 6.20879 6.20879C5.83371 6.58386 5.623 7.09257 5.623 7.623C5.623 8.15343 5.83371 8.66214 6.20879 9.03721C6.58386 9.41229 7.09257 9.623 7.623 9.623Z" fill="#000AFE"/>
</svg>
