<svg width="38" height="38" viewBox="0 0 38 38" fill="none" xmlns="http://www.w3.org/2000/svg">
<path d="M19.0001 0.696671L34.8334 6.23834V19C34.8334 25.5344 30.8228 30.1023 27.0814 32.9381C24.824 34.6339 22.3474 36.016 19.7189 37.0468C19.6731 37.0646 19.6272 37.082 19.5812 37.0991L19.5416 37.1133L19.5305 37.1165L19.5257 37.1181C19.5242 37.1181 19.5226 37.1181 19.0001 35.625L18.476 37.1197L18.4697 37.1165L18.4586 37.1133L18.419 37.0975C18.2075 37.0194 17.9974 36.9376 17.7888 36.8521C15.3418 35.843 13.0328 34.5273 10.9172 32.9365C7.1805 30.1039 3.16675 25.536 3.16675 19.0016V6.23834L19.0001 0.696671ZM19.0001 35.625L18.476 37.1197L19.0001 37.3033L19.5242 37.1197L19.0001 35.625ZM19.0001 33.9277L19.0143 33.9213C21.2055 33.0165 23.2734 31.8381 25.1687 30.4143C28.5539 27.8508 31.6667 24.1031 31.6667 19V8.48667L19.0001 4.05334L6.33341 8.48667V19C6.33341 24.1031 9.44625 27.8477 12.8314 30.4158C14.7309 31.8425 16.8037 33.0225 19.0001 33.9277ZM28.6141 13.2098L17.4183 24.4055L10.7002 17.689L12.9407 15.4486L17.4167 19.9278L26.3737 10.9709L28.6141 13.2098Z" fill="#4C4C4C"/>
</svg>
