<svg width="10" height="7" viewBox="0 0 10 7" fill="none" xmlns="http://www.w3.org/2000/svg">
<path d="M0.836385 0.867194C0.789059 0.813095 0.733388 0.770802 0.67255 0.742729C0.611712 0.714656 0.546899 0.701353 0.481812 0.70358C0.416724 0.705808 0.352637 0.723521 0.293208 0.75571C0.23378 0.787898 0.180174 0.833931 0.135452 0.89118C0.0907301 0.948429 0.0557676 1.01577 0.0325608 1.08937C0.00935388 1.16296 -0.00164295 1.24136 0.000198285 1.3201C0.00203952 1.39883 0.0166827 1.47636 0.0432917 1.54825C0.0699007 1.62014 0.107955 1.68498 0.15528 1.73908L4.61666 6.83609C4.7087 6.94135 4.83055 7 4.95721 7C5.08387 7 5.20573 6.94135 5.29777 6.83609L9.75964 1.73908C9.80801 1.68534 9.84706 1.62051 9.87453 1.54836C9.90201 1.4762 9.91736 1.39816 9.91969 1.31877C9.92202 1.23938 9.91129 1.16022 9.88812 1.08589C9.86494 1.01156 9.82979 0.943543 9.78471 0.885785C9.73962 0.828026 9.68549 0.781681 9.62548 0.74944C9.56546 0.717199 9.50074 0.699706 9.43509 0.697976C9.36943 0.696247 9.30414 0.710315 9.24302 0.739364C9.1819 0.768414 9.12616 0.811865 9.07904 0.867194L4.95721 5.57563L0.836385 0.867194Z" fill="#8A8A8A"/>
</svg>
