<svg width="10" height="7" viewBox="0 0 10 7" fill="none" xmlns="http://www.w3.org/2000/svg">
<path d="M0.834438 0.867193C0.787222 0.813094 0.73168 0.770802 0.670984 0.742729C0.610288 0.714656 0.545626 0.701353 0.48069 0.70358C0.415754 0.705807 0.351816 0.723521 0.292525 0.755709C0.233235 0.787898 0.179755 0.83393 0.135137 0.89118C0.0905189 0.948429 0.0556378 1.01577 0.0324849 1.08937C0.0093321 1.16296 -0.00163913 1.24136 0.000197823 1.3201C0.00203477 1.39883 0.0166438 1.47636 0.0431909 1.54825C0.069738 1.62014 0.107703 1.68498 0.154919 1.73908L4.60591 6.83609C4.69774 6.94135 4.81931 7 4.94567 7C5.07204 7 5.19361 6.94135 5.28543 6.83609L9.73692 1.73908C9.78517 1.68534 9.82413 1.62051 9.85155 1.54836C9.87896 1.4762 9.89427 1.39816 9.8966 1.31877C9.89892 1.23938 9.88821 1.16022 9.8651 1.08589C9.84198 1.01156 9.80691 0.943543 9.76193 0.885784C9.71694 0.828026 9.66295 0.78168 9.60307 0.749439C9.54319 0.717199 9.47862 0.699706 9.41312 0.697976C9.34762 0.696246 9.28249 0.710314 9.22151 0.739364C9.16053 0.768413 9.10491 0.811864 9.0579 0.867193L4.94567 5.57563L0.834438 0.867193Z" fill="#8A8A8A"/>
</svg>
